<svg width="224" height="220" viewBox="0 0 224 220" fill="none" xmlns="http://www.w3.org/2000/svg">
<path fill-rule="evenodd" clip-rule="evenodd" d="M87.479 1.56696C80.135 4.07296 70.073 8.97596 65.479 12.286C59.364 16.692 52.1762 18.3646 48.7089 19.4048C43.7089 20.9048 40.704 23.024 34.092 28.061C31.897 29.734 29.465 33.314 27.18 38.236C23.92 45.258 23.648 46.585 23.567 55.831C23.485 65.117 23.719 66.367 26.834 73.331C34.649 90.802 45.5 94 77 100.5C93.5 104.5 96 104.5 101.058 105.986C102.56 106.427 103.289 107 104 107C104.5 108 104.5 107.331 103.996 108.81C103.151 109.829 102.243 110.007 101.077 109.384C100.147 108.886 97.53 108.81 93 107.331C88.5 106.5 85.5 105.986 79.5 105C75.5 104.343 72.799 103.779 68.5 103C65.299 102.42 62 101.5 56.5 100.5C51 99.775 46.85 98.995 36.384 99.096C23.153 99.223 15.641 101.343 10.329 106.448C6.09197 110.519 4.80198 112.864 1.95898 121.665C0.146977 127.276 -0.097023 129.606 0.499977 135.616C1.44798 145.157 4.40097 150.735 12.742 158.743C18.095 163.882 19.798 166.256 20.849 170.04C23.493 179.554 25.22 183.141 29.531 188.069C35.754 195.183 41.1415 198.11 50.289 200.378C59.0932 202.561 65.1479 203.039 73.5 199.5C81.6403 196.051 85.028 191.31 90 184C96.5641 174.349 96.5168 163.363 99 155.5C102 146 102.5 145 106.5 124.5C108.816 112.63 109.713 114.332 108 121.665C107.213 125.451 104.343 137.616 103 145C102 150.5 100.321 155.991 100 158.743C98 167.243 99.5 159.5 98.362 166.834C94.5515 191.391 94.0696 200.348 108 211.5C113.665 216.035 117.839 217.827 125 219C129.625 219.758 132.457 220.152 137 219C139.883 218.269 141.379 217.405 144 216C146.244 214.797 147.341 213.85 149.5 212.5C157.163 207.709 162.793 202.53 169.463 200.793C181.26 197.72 190.651 189.893 195.812 178.832C198.527 173.014 198.747 167.345 196.581 159.049C193.985 149.106 190.251 143.462 182.979 138.491C176.703 134.201 176 133.5 172 131C168 128.5 162.341 126.739 158.5 125C155.187 123.5 149.2 122 139 119C130.5 116.5 137 118.119 121.702 114C118 112.119 116.584 112.604 117.5 111.5C118.132 110.74 120.478 112.278 121.702 112.5C126 114.381 130.5 115.5 134 116.5C137.5 117.5 141.475 119.247 144.5 120.076C153 123.076 159.241 124.762 166 126C177 128.015 173.5 127.405 181.5 128.5C190.283 128.5 198.008 127.484 204.653 123.815C211.436 120.07 215.485 115.893 219.642 108.352C222.209 101.905 222.209 101.905 223.292 92.331C223.292 81.738 222.118 77.88 217.024 71.331C213.582 66.907 209.526 59.15 207.611 53.331C201.793 35.649 193.174 26.741 178.979 23.736C168.153 21.444 157.116 23.045 149.171 28.06C145.556 30.341 138.709 34.9048 135.709 40.9048C133.661 45 127 61 125 69.5C123.5 74.5 122.834 78.251 121.702 81.5C120.571 84.748 119.833 87.5 119 90C117 96 115.046 103.49 113.849 102.751C112.139 101.694 116 97 121.702 77C129 47.5 129.5 52.5 130.961 36.615C130.979 27.608 130.544 25.747 126.338 16.817C124.228 12.338 115.996 3.94096 111.828 2.01696C107.676 0.0999643 92.596 -0.179036 87.479 1.56696Z" fill="#3B9023"/>
<path fill-rule="evenodd" clip-rule="evenodd" d="M98.475 40.5488C91.7974 42.6493 84.6083 49.6437 83.5875 55.0346C82.9946 58.166 82.4811 58.8202 81.0587 58.2634C74.2141 55.5789 67.2765 56.4904 60.4457 60.9709C53.4415 65.5665 50.9042 70.0993 51.4802 76.9858C52.277 86.5025 60.9247 92.3398 77 98.5C86.5013 102.141 107.5 107.5 109.5 106.668C111.5 104 117.952 84.4658 119.695 76.9858C122.172 66.3504 122.595 53.965 119.695 48.3427C115.385 39.9899 108.404 37.4258 98.475 40.5488ZM147.048 50.4359C142.25 51.8771 136.401 56.3732 132.717 61.4544C129.033 66.5356 127.338 71.6682 126 75.238C124.662 78.8079 121.124 91.5942 120.456 93.7051C119.846 95.6372 116.5 103.5 116.917 108.5C118 112 138.602 117.576 146 119.5C150.794 120.746 157.564 122.445 163 122.5C170.65 122.577 173.367 122.564 177.635 120.446C180.436 119.057 183.618 116.702 184.707 115.213C191.563 105.848 184.132 87.4392 172.056 83.8703C167.616 82.5589 167.616 82.5579 169.15 79.6211C172.29 73.6053 170.526 64.4686 164.783 57.0116C160.463 51.4019 153.02 48.6431 147.048 50.4359ZM110.758 53.5715C114.84 56.751 116.087 61.8898 115.431 72.8162C115.02 79.6463 113.894 85.145 111.447 92.2786C109.571 97.747 107.898 102.386 107.729 102.586C107.145 103.279 85.6312 96.2441 80.5736 93.7051C73.9626 90.3874 67.1677 84.2575 65.3606 79.9812C64.1422 77.0989 64.1485 76.0439 65.4018 73.0726C68.5721 65.5581 77.4108 62.9395 85.3618 67.1604C87.5313 68.3117 88.75 68.5692 89.2784 68.5692C89.8068 68.5692 90.3422 67.0809 90.6445 64.4246C91.2479 59.1237 93.9405 54.7845 97.8684 52.7855C101.74 50.8148 107.685 51.1769 110.758 53.5715ZM156.87 70.7973C160.173 74.069 160.345 80.1853 157.256 84.5987C153.438 90.0567 155.854 88.9777 157.439 88.9777C161.666 88.4544 167.134 90.9484 169.569 94.0149C172.18 97.3012 172.374 102.428 170.014 105.765C165.213 112.554 149.193 114.187 131.653 109.675C126.332 108.306 121.743 106.954 121.455 106.668C119.966 105.194 130.833 81.8096 136.063 75.238C142.513 67.1311 151.28 65.2598 156.87 70.7973ZM50.5724 107.868C44.7074 109.367 39.1901 112.765 36.6465 116.441C33.0356 121.664 33.7204 131.266 38.1482 137.507C42.0275 142.972 47.1813 146.531 52.4186 147.361L56.3761 147.988L55.7928 153.584C54.755 163.543 61.8691 174.364 71.2943 177.16C83.8316 180.88 94.3517 168.735 100 146.679C101.93 139.144 106.5 117 105 114C102.5 112 99.9555 112.529 93 111C79.6659 108.067 57.1391 106.188 50.5724 107.868ZM92.2444 116.446L98.8755 117.629L98.2584 121.438C94.6644 143.621 91.8957 151.42 85.1536 158.347C79.5517 164.103 76.1395 164.836 70.8906 161.41C65.0616 157.604 63.5007 151.253 66.5928 143.924C67.4646 141.857 67.0866 140.974 67.0866 140.784C67.0866 140.593 65.8848 139.743 63.0833 140.071C54.3778 141.093 48.0996 135.97 48.0996 127.846C48.0996 121.628 51.4876 118.475 61.0385 115.804C67.1486 114.095 80.6159 114.372 92.2444 116.446ZM110.347 124.684C101 163.5 100.703 176.904 112.653 185.667C123.144 193.36 144.264 182.745 144.264 169.779C144.264 166.129 143.996 166.225 149.974 167.717C158.006 169.72 169.062 164.706 173.884 156.874C177.053 151.727 178.5 145 173.17 138.108C168.834 132.5 148.5 124.5 127.5 119.5C121.455 117.629 116.036 116.03 114.471 115.722C111.902 115.218 111.319 121.079 110.347 124.684ZM131 125.5C147.65 130.845 159.997 139.019 161.695 146.679C162.572 150.631 159.931 155.625 155.572 158.256C151.196 160.899 149.906 160.839 143.65 157.695C140.792 156.258 140 155.5 138.946 155.959C137.891 156.419 137.923 157.075 137.921 159.522C137.919 166.35 135.066 171.008 129.777 172.819C123.489 174.972 119.037 172.793 115.601 165.881C113.458 161.57 113.093 159.297 113.113 150.364C113.135 140.907 113.113 140.071 115.601 127C116.178 124.728 116.162 121.205 116.917 121.438C117.629 121.656 125.403 123.704 131 125.5Z" fill="#E4F9DF"/>
</svg>
