<svg width="103" height="102" viewBox="0 0 103 102" fill="none" xmlns="http://www.w3.org/2000/svg">
<path fill-rule="evenodd" clip-rule="evenodd" d="M38.0389 2.52741C23.308 6.77222 11.9899 16.4879 4.84434 31.5826C1.72526 38.1708 1.58496 42.6848 1.06167 50.0143C0.522317 57.5688 3.56017 70.0087 8.626 77.6827C13.7528 85.6995 20.5906 91.6718 29.9668 96.3245C29.9668 96.3245 35.0848 98.5977 38.5385 99.5004C42.9178 100.645 50.0314 101 50.0314 101C59.5256 101 68.9738 99.0107 77.6904 93.4333C85.7044 88.3047 94.0043 78.5063 96.3259 72.0853C97.5022 69.5088 98.6683 67.295 99.5009 64.0104C100.132 61.5216 100.5 57.5122 100.5 57.5122C100.5 57.5122 101 54.513 101 52.0137C101 49.5144 101 35.0185 93.4357 24.3457C88.3288 16.3609 81.48 10.3606 72.2417 5.77787C66.0216 3.02742 59.9544 1.21793 53.0297 1.02798C46.1049 0.838034 41.1 1.64565 38.0389 2.52741Z" fill="white"/>
<path fill-rule="evenodd" clip-rule="evenodd" d="M32.7308 46.2244C32 47 31.0919 47.644 32.7309 49.283C34.3709 50.923 34.5 50.5 35.7896 49.283L49.0199 36.551V55.276C49.0199 55.276 49 65.8831 49 73C49 74 50.5242 74.001 51.5199 74.001C52.5156 74.001 54 74.001 54 73C54 68 54.0199 55.276 54.0199 55.276V36.551L67.5 50C68.5 51 69.287 50.288 70 49.5C70.713 48.712 71.5 48 70.5 47L51.4849 27L32.7308 46.2244Z" fill="#547443"/>
<path fill-rule="evenodd" clip-rule="evenodd" d="M0.0220947 49.5C0.0220978 21.5 23.2667 0 51.0221 0C78.7775 0 102 21.5 102.022 49.5C102.045 78.0837 79.6058 102 51.0221 102C22.4384 102 0.0220916 78.0837 0.0220947 49.5ZM51.0221 4C24.9234 4 4 23.4013 4 49.5C4 76.5 24.095 98 51.0221 98C77.9492 98 98 76.5 98 49.5C98 23.4013 77.1208 4 51.0221 4Z" fill="#547443"/>
</svg>
