<svg width="50" height="50" viewBox="0 0 50 50" fill="none" xmlns="http://www.w3.org/2000/svg">
<path d="M27.8541 22.6964L39.0223 10H36.3758L26.6784 21.0241L18.9332 10H10L21.7123 26.6704L10 39.9846H12.6466L22.8873 28.3427L31.0668 39.9846H40L27.8534 22.6964H27.8541ZM24.2291 26.8173L23.0424 25.1573L13.6003 11.9485H17.6654L25.2853 22.6084L26.472 24.2684L36.377 38.1247H32.3119L24.2291 26.8179V26.8173Z" fill="#547443"/>
<path fill-rule="evenodd" clip-rule="evenodd" d="M14.5 2.38282C5.37201 6.69882 0.0440063 15.0338 0.0440063 24.9998C0.0440063 43.2848 17 54.5 35.5 48C44.618 43.689 49.946 34.9768 49.968 24.9998C50.009 6.76482 30.945 -5.39118 14.5 2.38282ZM36.917 5.75182C39.565 7.38882 42.682 10.5498 44.418 13.3588C46.92 17.4048 47.5 20.9996 47.5 24.9998C47.5 29 46.669 33 44.474 36.5508C39.965 43.8448 33.685 47.3748 25.09 47.4448C20.5 47.4448 16.6928 46.5754 13.449 44.4738C5 39 2.5 31.5 2.5 24.9998C2.5 20.5 2.96401 17.7108 5.30501 13.7278C11.867 2.56382 25.996 -1.00018 36.917 5.75182Z" fill="#547443"/>
</svg>
