<svg width="380" height="182" viewBox="0 0 380 182" fill="none" xmlns="http://www.w3.org/2000/svg">
<path fill-rule="evenodd" clip-rule="evenodd" d="M208.05 1.64484C207.29 2.538 205.805 5.10154 204.749 7.3412C202.937 11.1828 202.829 11.6866 202.829 16.2329C202.829 20.1014 202.626 21.4479 201.804 23.0563C200.428 25.7473 199.56 25.9782 197.72 24.1429C196.561 22.9863 196.155 22.0642 195.982 20.1989C195.858 18.8594 195.647 17.2325 195.512 16.5832C195.28 15.4612 195.22 15.4447 194.326 16.2529C192.104 18.2581 192.643 23.2362 195.575 27.809C196.887 29.8563 197.323 31.1713 197.592 33.8977C197.807 36.0724 197.747 37.4924 197.431 37.6868C197.153 37.8582 195.83 37.124 194.492 36.0559C192.417 34.3991 191.948 33.6883 191.307 31.2267C190.038 26.3506 188.822 27.3512 188.809 33.2845C188.803 35.8505 189.025 36.6127 190.272 38.3031C191.08 39.3997 192.01 41.3629 192.339 42.6659C192.873 44.7831 192.837 45.145 191.997 46.0697C191.355 46.7759 190.977 48.1459 190.806 50.3805L190.556 53.6563L187.587 55.2932C183.061 57.7898 181.789 59.0853 181.789 61.201C181.789 62.5645 182.23 63.4811 183.63 65.0271C186.001 67.6446 187.7 68.4948 190.566 68.4948C193.83 68.4948 196.813 70.6075 198.247 73.9342C199.102 75.917 199.323 77.4314 199.327 81.3324C199.331 85.4399 199.524 86.6444 200.513 88.7372C201.163 90.1116 202.231 91.7075 202.888 92.2838C204.758 93.9257 210.758 98.0822 213.64 99.733C217.385 101.878 223.86 106.483 225.493 108.165C226.26 108.954 228.086 111.54 229.552 113.913C231.017 116.285 232.916 118.676 233.772 119.226C235.526 120.354 237.891 124.254 237.902 126.041C237.907 126.691 238.089 127.504 238.309 127.848C238.527 128.193 238.289 131.342 237.778 134.846C236.939 140.599 236.906 142.104 237.445 150.34C237.773 155.358 237.9 161.093 237.726 163.085C237.243 168.648 234.588 174.684 230.81 178.817C229.747 179.979 228.704 181.704 228.704 181.985C230.71 181.985 243.248 181.985 243.75 181.985C243.865 181.642 244.328 175.979 244.908 170.207C245.488 164.434 246.565 157.012 247.302 153.713C248.677 147.556 255.336 129.419 256.344 129.084C256.639 128.986 257.573 129.416 258.419 130.04C259.595 130.907 260.244 132.083 261.177 135.026C263.13 141.195 264.72 144.736 266.982 147.954C268.146 149.61 269.237 150.964 269.407 150.964C269.576 150.964 270.317 151.521 271.054 152.202C271.965 153.046 272.814 154.84 273.712 157.825C275.492 163.738 277.908 170.031 278.769 170.996C279.156 171.43 279.473 171.974 279.473 172.206C279.473 172.437 279.855 173.048 280.322 173.562C281.124 174.447 281.083 174.673 279.57 177.735C278.69 179.515 277.854 181.706 277.854 181.985C278.356 181.985 279.861 181.985 283.371 181.985H288.888L290.401 178.076C291.553 174.47 291.554 174.441 290.59 173.078C290.056 172.323 287.069 166.645 283.952 160.46L278.284 149.214L274.381 135.234C272.234 127.544 270.642 121.114 270.843 120.943C271.543 120.348 280.381 119.476 285.706 119.476C290.37 119.476 291.624 119.282 295.256 118.003C297.556 117.193 300.573 115.956 301.962 115.254C304.921 113.758 306.58 113.64 307.622 114.852C308.601 115.992 310.515 120.793 314.046 130.971C315.62 135.507 317.408 140.476 318.019 142.013L319.131 144.808L313.771 157.757C307.474 172.972 303.934 181.485 303.934 181.985C304.436 181.985 306.558 181.985 309.451 181.985H314.539V179.989C314.539 178.397 314.826 177.802 316.059 176.84C317.445 175.757 317.998 174.252 322.361 159.685L327.143 143.717L326.667 135.72C326.405 131.321 326.255 127.648 326.334 127.557C326.865 126.94 329.006 129.164 331.632 133.061L334.702 137.616L334.613 142.339C334.565 144.936 334.318 147.434 334.066 147.888C333.813 148.343 333.151 150.289 332.595 152.213C331.614 155.607 331.608 155.878 332.405 161.23L333.227 166.747L331.629 171.532C330.751 174.163 329.364 177.367 328.548 178.651C327.731 179.936 327.005 181.72 327.005 181.985C327.507 181.985 329.329 181.985 332.522 181.985H338.039L338.558 180.078C338.845 179.047 339.081 177.613 339.082 176.89C339.084 176.168 339.394 175.321 339.772 175.009C340.234 174.626 340.545 172.77 340.725 169.325C340.873 166.511 341.366 162.859 341.822 161.21C342.278 159.561 343.065 155.849 343.571 152.963C344.077 150.077 344.874 146.403 345.343 144.799C345.865 143.009 346.07 141.223 345.873 140.174C345.696 139.234 345.937 135.688 346.408 132.293C346.879 128.898 347.125 125.757 346.954 125.312C346.782 124.868 343.935 122.529 340.624 120.116C336.501 117.109 334.595 115.412 334.575 114.727C334.558 114.178 334.214 113.291 333.809 112.758C333.405 112.224 333.074 110.794 333.074 109.581C333.074 107.825 333.329 107.174 334.321 106.395C336.287 104.852 338.923 99.9095 341.436 93.0535C343.903 86.3216 345.028 81.3819 345.07 77.0915C345.095 74.6654 344.175 71.8305 343.229 71.4137C343.016 71.3202 342.223 70.416 341.466 69.4039C340.547 68.1769 338.714 66.8689 335.955 65.4739C333.682 64.3238 330.469 62.636 328.816 61.7223C322.854 58.4275 319.174 57.6053 309.046 57.3055C302.083 57.099 299.447 57.197 297.846 57.7208C296.696 58.0977 294.596 58.644 293.18 58.9348C291.765 59.2257 289.285 60.2304 287.67 61.1675C286.054 62.1052 284.169 63.0418 283.481 63.2497C282.792 63.4576 280.65 64.4178 278.722 65.3839L275.215 67.1398L264.695 66.7554C247.209 66.1166 231.901 66.1221 231.364 66.7674C231.013 67.1892 229.627 67.0978 226.002 66.4125C220.739 65.4179 219.191 64.4153 218.567 61.5988C218.403 60.8556 217.71 58.561 217.028 56.4993C216.346 54.4375 215.661 52.2334 215.507 51.6006C215.136 50.0822 216.708 48.4363 220.121 46.7699C222.248 45.7318 222.975 45.0396 223.819 43.2467C224.397 42.0197 224.87 40.6817 224.87 40.2733C224.87 39.865 225.546 38.0577 226.373 36.2569C227.2 34.456 227.877 32.3703 227.879 31.6211C227.882 30.5705 228.923 29.231 232.435 25.7608C237.653 20.6052 241.101 15.9625 241.554 13.4809C241.726 12.5378 242.213 10.1916 242.636 8.26735C243.649 3.65808 243.616 2.16714 242.486 1.56387C241.673 1.13003 241.44 1.46191 240.475 4.4203C239.874 6.26111 239.387 8.17389 239.391 8.6707C239.394 9.16751 239.137 10.6065 238.818 11.868C238.3 13.9252 238.172 14.0702 237.587 13.2715C237.228 12.7817 236.785 11.3892 236.603 10.1776C236.407 8.87762 236.04 8.05043 235.706 8.15939C234.782 8.46178 234.755 12.5203 235.66 14.8839C236.453 16.9566 236.449 17.127 235.584 18.1666C233.84 20.2654 230.671 23.5116 230.367 23.5116C230.199 23.5116 230.008 21.0995 229.942 18.1521C229.877 15.2042 229.717 12.6872 229.589 12.5587C229.46 12.4303 228.966 12.7147 228.49 13.1905C227.779 13.9017 227.619 15.0483 227.592 19.6581C227.574 22.7399 227.518 25.5279 227.467 25.8543C227.272 27.1138 223.385 30.1736 217.978 33.3244C211.008 37.3869 209.193 37.272 212.319 32.9671C213.782 30.9523 215.209 25.9922 214.605 25.0181C213.919 23.91 212.848 24.5243 212.848 26.0267C212.848 27.9934 211.878 30.2591 209.661 33.4759C208.677 34.9029 207.723 36.8596 207.542 37.8243C207.187 39.7086 206.289 40.2923 203.288 40.5877L201.584 40.7552L201.548 34.629C201.513 28.7971 201.566 28.4678 202.646 27.762C203.27 27.3542 204.709 25.4599 205.845 23.5521C207.508 20.7597 208.581 19.6306 211.354 17.7573C213.248 16.4778 215.068 15.1068 215.397 14.7109C216.626 13.2345 215.199 13.3444 212.193 14.9578C210.341 15.952 208.586 16.5512 207.838 16.4443C206.676 16.2773 206.575 16.0409 206.438 13.175C206.305 10.408 206.501 9.66633 208.316 6.06368C211.14 0.460283 211.002 -1.82886 208.05 1.64484ZM103.6 71.6971C103.486 71.809 101.137 72.1264 98.3819 72.4018C94.7666 72.7637 92.6752 73.254 90.8678 74.1631C89.4902 74.8564 87.0922 76.0054 85.5388 76.7167C82.7966 77.9732 75.8715 83.6631 74.1743 86.0547C73.5026 87.0013 73.3392 88.3873 73.3563 92.9856C73.3758 98.2291 73.5221 99.1183 75.0214 103.119C75.9256 105.531 77.6629 109.274 78.8822 111.438C81.3433 115.805 81.695 118.191 80.2022 120.398C79.7093 121.128 78.6593 122.962 77.8693 124.474C77.0793 125.986 76.0178 127.819 75.5099 128.549C75.0024 129.279 74.5871 130.106 74.5871 130.388C74.5871 130.668 73.7635 131.576 72.7566 132.404L70.9257 133.91L71.2208 138.813C71.3831 141.51 71.31 144.841 71.0585 146.216C69.9714 152.155 69.9323 153.219 70.7759 153.918C71.4978 154.516 71.5504 155.832 71.2563 165.94C70.9653 175.932 71.0249 177.49 71.7548 178.949C72.2106 179.86 72.7262 181.615 72.7262 181.985C73.7292 181.99 73.4216 181.985 76.2369 181.985C79.6078 181.985 77.7382 181.985 79.7477 181.985C79.7477 181.485 78.6002 177.926 78.3121 173.455C78.1789 171.394 77.9435 167.911 77.7877 165.716C77.5908 162.93 77.7335 160.893 78.261 158.968C78.6768 157.452 79.2785 153.851 79.5981 150.966C79.9177 148.081 80.3484 145.494 80.5553 145.218C80.7622 144.942 81.2371 143.929 81.6108 142.967C82.4339 140.848 85.0914 137.38 87.8226 134.859L89.8383 132.999L90.427 134.609C92.4322 140.09 93.2057 143.494 92.8816 145.408C92.596 147.093 92.7433 147.696 93.7747 149.07C94.454 149.974 95.1524 151.184 95.3267 151.76C95.501 152.334 96.1663 153.295 96.805 153.893C97.6285 154.665 99.2666 158.907 102.432 168.465L106.827 181.985H110.338H113.849L113.824 179.629C113.662 175.769 113.229 174.299 111.948 173.249C110.671 172.203 109.152 169.185 109.152 167.693C109.152 167.255 107.619 163.255 105.746 158.805C100.968 147.458 100.312 142.576 102.677 135.969C104.041 132.159 110.409 119.874 111.255 119.423C111.917 119.069 112.517 119.208 113.533 119.95C114.781 120.861 119.297 121.872 123.51 122.184C124.381 122.249 125.669 122.678 126.373 123.138C127.076 123.598 127.942 123.982 128.296 123.993C128.65 124.004 129.485 125.131 130.152 126.498C130.819 127.864 132.492 130.477 133.87 132.303L136.376 135.623L135.037 136.772C133.8 137.834 133.698 138.215 133.696 141.818C133.693 146.374 131.999 151.493 127.74 159.81C126.334 162.556 125.182 165.149 125.182 165.57C125.182 165.991 124.856 166.606 124.458 166.936C123.943 167.362 123.739 168.58 123.755 171.121C123.782 175.281 124.148 177.364 125.886 179.485C126.898 180.721 126.387 179.985 127.892 181.485C128.623 181.028 129.493 180.077 129.744 175.152C130.069 168.765 130.534 166.896 133.956 158.211C135.148 155.187 136.283 152.151 136.479 151.464C136.675 150.776 137.228 149.652 137.707 148.965C138.185 148.277 139.088 146.703 139.712 145.466C140.335 144.229 141.092 143.059 141.393 142.867C141.998 142.482 143.71 143.803 143.729 144.669C143.735 144.97 144.862 146.877 146.234 148.908C147.605 150.938 148.727 152.803 148.727 153.052C148.727 153.3 149.15 154.113 149.667 154.857C154.186 161.37 156.82 167.386 157.584 172.938C157.987 175.868 158.698 177.199 160.774 178.913C161.863 179.811 162.999 181.566 162.999 181.952C164.002 181.952 163.686 181.952 167.011 181.952C171.702 181.952 169.018 181.985 171.024 181.952C170.522 178.986 169.519 177.486 169.263 176.704C168.516 175.486 167.804 173.835 166.032 171.551C164.26 169.266 162.541 166.567 162.212 165.553C161.882 164.539 161.193 163.112 160.68 162.383C160.167 161.653 159.748 160.847 159.748 160.591C159.748 160.335 158.926 158.458 157.92 156.419C156.915 154.381 155.916 151.926 155.701 150.964C155.485 150.002 155.004 147.865 154.632 146.216C154.173 144.179 153.278 142.302 151.842 140.364C150.68 138.795 149.729 137.06 149.729 136.508C149.729 134.93 151.396 134.317 153.406 135.154C154.736 135.709 155.725 136.902 157.981 140.674C159.564 143.321 161.952 146.982 163.288 148.811C164.624 150.638 165.854 152.755 166.02 153.514C166.188 154.273 166.648 155.161 167.043 155.489C167.439 155.816 167.763 156.487 167.763 156.979C167.763 158.851 172.445 172.15 174.059 174.864C174.989 176.426 176.005 178.266 176.318 178.953C176.631 179.641 177.056 180.54 177.264 180.953C177.562 181.547 180.051 181.985 183.061 181.985C183.061 181.985 185.568 182.018 187.073 181.985C188.076 180.485 188.076 179.485 188.076 179.485L188.051 177.903C188.051 174.486 188.24 173.743 189.929 170.506C191.683 167.147 191.808 166.618 191.808 162.523C191.808 158.672 191.625 157.762 190.305 155.043C188.272 150.855 188.319 148.928 190.504 146.944C191.915 145.663 192.439 144.551 193.567 140.445C194.561 136.831 194.833 134.981 194.572 133.606L194.214 131.721L191.673 134.47C190.275 135.982 187.684 138.962 185.916 141.093C184.148 143.223 182.428 144.966 182.095 144.966C180.76 144.966 180.286 143.674 180.271 139.993C180.255 136.094 178.718 131.02 177.425 130.599C177.091 130.49 176.337 131.422 175.749 132.67L174.68 134.939L173.396 132.58C171.084 128.334 170.439 126.761 169.866 123.974C168.905 119.303 167.763 110.667 167.763 108.072C167.763 104.358 165.825 100.65 161.788 96.6372C159.906 94.7664 157.419 92.6732 156.261 91.9859C155.102 91.2987 150.623 88.4013 146.306 85.5474C138.721 80.5332 134.548 78.3191 123.936 73.6808L118.932 71.4936H111.37C107.212 71.4936 103.715 71.5851 103.6 71.6971ZM10.4343 167.572C9.49802 168.735 8.35633 170.792 7.89747 172.145L7.06295 174.604L6.26041 173.056C5.27004 171.145 2.47578 168.957 1.02655 168.957C-0.365071 168.957 -0.339531 169.8 1.11821 171.965C1.76293 172.922 2.72123 174.38 3.24723 175.205L4.20453 176.704L2.81294 175.808C1.47542 174.948 0.447466 175.016 0.447466 175.965C0.447466 176.213 1.29305 177.659 2.326 179.178L4.01571 181.985H9.03107C11.5799 181.989 12.5418 181.985 13.0434 181.985C13.0434 181.732 14.6327 179.766 16.0508 178.218C17.8477 176.256 18.4704 175.244 18.1052 174.879C17.3708 174.147 15.7122 174.778 13.6679 176.569L11.926 178.095L12.5563 176.65C13.457 174.583 15.4322 171.39 16.6029 170.107C17.6694 168.939 17.4941 167.458 16.2893 167.458C15.8931 167.458 14.536 168.604 13.2736 170.005L10.0341 174.486L11.7708 170.629C12.2066 169.572 12.9169 168.601 13.0176 168.232C13.2736 167.295 13.5571 165.458 12.8042 165.458C12.437 165.458 11.3706 166.41 10.4343 167.572ZM365.919 168.403C365.767 168.649 366.175 170.055 366.827 171.527C367.478 173 368.158 174.992 368.338 175.954L368.665 177.704L367.776 176.466C365.959 173.935 364.008 171.956 363.329 171.956C362.273 171.956 362.49 173.675 363.683 174.751C364.262 175.274 365.065 176.336 365.467 177.112C366.166 178.463 366.155 178.499 365.198 177.988C363.862 177.274 362.63 177.312 362.63 178.066C362.63 178.403 365.612 181.085 366.626 181.985C368.131 181.985 366.423 181.985 370.137 181.985C371.14 181.985 371.642 181.985 373.146 181.985C379.666 177.986 382.676 176.986 377.032 177.105L374.903 177.387L376.781 175.664C377.815 174.717 378.66 173.607 378.66 173.199C378.66 172.295 377.101 172.22 376.209 173.081C373.648 176.486 375.811 173.1 376.359 171.77C377.349 169.369 377.379 167.957 376.44 167.957C375.481 167.957 373.733 170.48 372.367 173.833L371.253 176.567L370.909 174.537C370.304 170.962 366.915 166.796 365.919 168.403ZM43.6118 176.249L41.1294 178.486L40.0641 176.499C39.1232 174.955 38.6217 173.986 37.6186 173.986C36.6156 174.486 37.6186 175.986 38.1202 176.986C40.0641 180.485 36.9342 177.86 35.4639 177.44C34.6334 177.202 33.617 177.136 33.2062 177.293C31.9844 177.761 33.2062 179.485 35.6125 179.985C36.6156 180.485 37.6177 181.431 38.1202 181.985C39.6248 181.985 38.1067 181.985 41.1294 181.985C43.1452 181.985 43.6371 181.985 44.1386 181.985C44.3179 181.695 45.1314 181.154 46.6463 180.485C50.6586 179.985 51.1601 176.986 47.1478 177.986C40.9246 180.767 46.1736 177.085 46.7732 176.649C47.8312 175.879 47.7346 174.455 46.6245 174.455C46.123 174.455 44.7669 175.263 43.6118 176.249ZM202.328 176.425C202.328 176.684 202.553 177.034 202.829 177.204C203.907 177.869 205.633 179.985 202.123 178.459C199.615 177.486 198.922 178.922 202.123 179.985C203.627 180.485 203.627 180.985 204.129 181.985C205.633 181.985 203 181.981 206.135 181.985C208.449 181.988 208.642 181.985 209.144 181.985C209.679 181.582 210.649 180.485 211.652 180.485C212.655 180.485 213.444 180.203 213.634 179.897C214.151 179.062 212.806 178.402 210.969 178.587C210.074 178.678 208.642 179.56 208.642 179.485C208.642 179.41 210.017 178.13 210.844 177.704C211.67 177.277 212.347 176.68 212.347 176.376C212.347 175.495 208.841 176.279 207.606 177.437L206.515 178.459L205.336 177.207C204.18 175.978 202.328 175.497 202.328 176.425Z" fill="#EBB7B7"/>
</svg>
