<svg width="150" height="170" viewBox="0 0 150 170" fill="none" xmlns="http://www.w3.org/2000/svg">
<path fill-rule="evenodd" clip-rule="evenodd" d="M86.4378 11.0782C81.712 17.3241 79.9373 30.0461 82.6025 38.5795C85.403 47.5459 91.3405 55.3288 99.2767 60.4369C114.62 70.3133 136.245 66.6837 143.607 52.9973L145.161 50.1094L143.19 52.0079C139.396 55.6635 133.666 57.669 127.027 57.6638C110.844 57.6534 97.3815 49.0252 90.4858 34.2442C87.5892 28.0354 87.4621 23.7657 87.4621 18.881C87.4621 13.9963 87.4156 9.99914 87.3577 10C87.3007 10 86.8868 10.4856 86.4378 11.0782ZM51.7149 23.5544C46.1009 32.2577 44.5234 37.2917 44.0655 47.9633C43.5945 58.9447 44.8567 65.1578 49.5817 75.1239C54.9863 86.5227 63.7072 96.0394 74.6639 102.497C83.7555 107.854 88.7413 109.307 99.6841 109.791C111.559 110.317 118.608 108.946 127.639 104.358C135.206 100.514 144.313 91.3876 147.745 84.2102L150 79.4962L145.348 83.9971C140.182 88.9957 131.294 93.8658 124.699 95.3106C117.863 96.8088 106.056 96.4776 99.0926 94.592C78.7387 89.0811 61.2221 71.8625 55.1575 51.4033C52.7538 43.2934 52.5077 28.3218 54.6767 22.1096C55.4158 19.9937 55.9006 18.1357 55.7555 17.9813C55.6097 17.8278 53.791 20.3353 51.7149 23.5544ZM12.9945 36.8198C2.47294 50.9133 -0.619247 61.0036 0.0985968 78.8976C0.972068 100.668 8.41206 117.664 24.3114 134.21C37.2073 147.63 52.4026 156.281 67.7837 158.961C78.7852 160.877 94.1809 160.079 103.758 157.095C120.96 151.735 134.99 140.2 144.013 123.999C146.932 118.759 147.259 117.477 144.851 120.718C139.852 127.446 126.574 135.451 115.421 138.46C73.8809 149.666 28.44 121.567 15.6769 76.7809C13.8134 70.2435 13.4712 67.3996 13.3995 57.8725C13.3131 46.4099 14.1727 40.71 17.0759 33.505C17.8882 31.4892 18.4741 29.8399 18.3779 29.8408C18.2826 29.8416 15.8594 32.9823 12.9945 36.8198Z" fill="#1E3050"/>
</svg>
