<svg width="220" height="154" viewBox="0 0 220 154" fill="none" xmlns="http://www.w3.org/2000/svg">
<path fill-rule="evenodd" clip-rule="evenodd" d="M48.499 2.44994C36.656 5.69294 31.618 8.31094 24.842 14.7469C18.094 21.1569 15.285 25.1459 10.201 35.5409C3.193 49.8689 0.00300036 60.9109 3.5579e-07 70.8529C-0.00199964 80.0879 7.41 93.239 23 107.5C39.658 122.738 43.999 125.662 43.999 127.304C43.999 128.155 42.424 130.737 40.499 133.041C38.574 135.345 36.999 138.334 36.999 139.683C36.999 143.996 44.939 149.775 49.345 148.669C55.442 147.139 61.741 138.265 63.541 128.669C64.823 121.836 63.427 118.706 54.965 109.442C50.584 104.646 46.999 100.343 46.999 99.8809C46.999 98.5179 55.407 98.9209 59.879 100.499C65.287 102.407 71.443 107.426 75.198 112.991C78.657 118.116 78.626 122.233 75.07 130.072C72.486 135.768 72.481 139.593 75.05 144.911C77.935 150.881 83.228 153.041 94.976 153.041C103.402 153.041 103.929 152.909 107.026 150.016C110.033 147.207 110.219 146.661 109.63 142.367C109.282 139.824 108.587 137.247 108.087 136.642C106.051 134.176 105.806 128.138 107.527 122.85C110.227 114.558 111.366 113.698 118.497 114.572C129.43 115.913 138.268 115.424 143.13 113.209C145.601 112.084 148.382 111.274 149.31 111.41C153.709 112.056 155.322 119.631 152.499 126.387C149.383 133.844 151.48 145.522 156.91 150.952C158.801 152.843 160.158 153.041 171.249 153.039C185.623 153.038 189.423 151.743 192.295 145.867C194.053 142.272 194.038 141.949 191.605 130.867C190.238 124.638 188.83 115.266 188.475 110.041C188.475 110.041 187.081 103.665 188.475 100C189.607 97.0241 193.45 93.5409 193.45 93.5409C200.5 86 203.825 77.8889 204.71 72.4329C205.456 67.8359 206.972 68.0689 210.295 73.2909C212.626 76.9539 216.665 77.0509 218.024 73.4759C220.978 65.7049 217.649 52.9249 209.932 42.4139C198.617 27.0039 188.299 17.0611 172.5 10.5C172.5 10.5 167.998 8.65987 160.499 6.07994C153 3.5 142 3.5 142 3.5C123.866 3.481 120.943 5.404 116.5 7.5C113.876 8.737 111.78 11.2579 111.491 12.1339C111.201 13.0099 111.592 16.7219 112.359 20.3819C113.411 25.4009 113.553 29.9339 112.935 38.8189C111.993 52.3789 110.092 56 106.09 61.4179C98.393 71.8369 88.867 77.87 77.967 78C73.162 78.0573 70.0359 76.5 67.507 74.0489C63.674 70.3339 60.999 65.8149 60.999 63.0539C59.879 60 63 60 64.5 64.5C65.543 66.835 68.055 69.3399 69.5 70.8529C72 73 73.434 74.0409 77.967 74.0409C82.5 74.0409 85.232 73.6219 90.163 70.5369C95.631 67.1169 101.925 59.9529 105.45 53.1359C107.854 48.4879 108.68 32.4549 106.981 23.4229C104.826 11.9709 99.895 6.61594 87.432 2.19394C78.903 -0.833062 60.035 -0.709062 48.499 2.44994ZM34.5 56C34.5 58 32.5 60 30.5 60C28.5 60 26.5 58 26.5 56C26.5 54 28.5 52 30.5 52C32.5 52 34.5 54 34.5 56ZM35.588 82.5409C36.426 85.8769 35.526 89.0989 32.999 91.8109C30.329 94.6759 24.461 94.7679 17.056 92.0619C9.346 89.2439 8.896 88.2529 15.398 88.4079C21 87.5 21 87.5 25.216 84.2909C30.313 79.1979 34.569 78.4799 35.588 82.5409Z" fill="#1E3050"/>
</svg>
