<svg width="210" height="110" viewBox="0 0 210 110" fill="none" xmlns="http://www.w3.org/2000/svg">
<path fill-rule="evenodd" clip-rule="evenodd" d="M56.884 1.15908C54.0634 2.46691 52.1967 4.52975 52.1967 6.33973C52.1967 8.43804 52.1967 10.8944 55.3494 12.3894C55.909 12.6548 57.82 13.3851 59.5281 14.1918C63.5214 16.0778 64.626 17.8249 66.348 24.9762C67.7379 30.7502 69.9853 36.02 71.4021 36.8282C72.0876 37.2194 71.932 37.4003 70.4914 37.8847C69.536 38.2065 67.7473 39.1201 66.5175 39.9151C64.0881 41.4854 59.553 43.2407 56.4684 43.8037C55.4001 43.9987 53.946 44.467 53.2372 44.8445C51.538 45.7479 50.4538 45.714 49.4855 44.7269C48.5444 43.7677 47.2256 44.133 47.2256 45.3522C47.2256 45.8254 46.977 47.6694 46.6728 49.449C46.1459 52.5328 46.0778 52.6453 45.2153 51.8498C44.2946 51.0005 41.2602 45.5513 41.2602 36.81C41.2602 36.0687 41.048 35.3278 40.788 35.1642C39.926 34.621 39.2718 36.8115 39.2524 40.3088L39.233 43.7626L37.946 41.5863C36.5297 39.1915 34.081 37.6481 30.8666 37.1241C28.8891 36.8019 28.8325 36.8323 28.8325 38.2232C28.8325 39.0106 29.434 40.5389 30.1692 41.6202C31.8842 44.1437 34.6442 45.5969 37.3803 45.4191C39.4552 45.2838 39.4721 45.2969 39.842 47.3096C40.4679 50.7188 41.9935 54.2997 43.9094 56.8581C46.2796 60.0231 46.4307 60.7857 46.0256 67.5062C45.687 73.1125 44.5104 79.4834 42.7367 85.3132C42.2281 86.9853 41.6783 89.4064 41.5153 90.694C41.3522 91.981 40.8367 93.372 40.3694 93.7844C35.9934 97.6502 25.8768 109.076 25.8768 109.966C26.3744 109.966 49.5965 109.882 78.6256 109.966C105.331 110.043 131.374 109.966 131.872 109.966C131.872 109.819 129.495 106.733 126.758 103.524C120.947 96.7117 120.35 95.7976 115.88 86.8668C110.049 75.2179 107.323 61.1703 106.558 38.8221C106.364 33.1814 106.084 30.3347 105.722 30.3347C105.422 30.3347 104.686 30.9615 104.087 31.7281C103.077 33.0187 102.686 33.1343 98.7756 33.2979L94.5541 33.4748L95.17 30.4649C95.9301 26.7537 96.2065 26.281 97.6173 26.281C98.2327 26.281 99.469 25.5508 100.365 24.658C101.345 23.681 102.52 23.0258 103.318 23.0111C105.213 22.9772 105.459 20.9493 103.669 20.1178C102.391 19.5244 102.188 19.5807 98.4281 21.5726C98.2914 21.645 97.8912 21.5179 97.5387 21.2903C97.0655 20.9843 97.0272 20.5308 97.3916 19.5528C97.829 18.3803 98.0851 18.2627 99.639 18.5196C100.98 18.7416 101.466 18.6154 101.704 17.985C101.875 17.5315 102.534 17.1601 103.169 17.1601C104.519 17.1601 105.886 15.9303 105.883 14.7172C105.88 13.4804 104.227 10.9103 101.927 8.56522C100.823 7.43981 99.9194 6.22775 99.9194 5.87204C99.9194 4.8429 98.4092 2.92397 97.8678 3.26499C97.5969 3.43575 97.5104 4.2014 97.6754 4.96654C98.1039 6.9559 96.7568 8.06966 95.8988 6.4355C94.8603 4.4578 94.0077 3.8619 92.6964 4.19734C91.7026 4.45171 91.4685 4.82871 91.4685 6.17404C91.4685 7.08865 91.734 8.10715 92.0586 8.43804C93.2213 9.62324 90.608 11.5964 84.5209 14.1279C80.6782 15.7261 79.5672 16.5713 78.0008 19.0887L76.6253 21.299L76.9046 17.5341C77.4872 9.68354 73.7405 3.13628 67.4197 0.960451C63.5179 -0.382849 60.069 -0.317483 56.884 1.15908ZM201.881 93.8007C200.8 95.2635 199.762 97.0872 199.575 97.8534L199.234 99.2458L198.216 97.9253C196.772 96.0545 193.412 93.674 192.215 93.674C191.246 93.674 191.256 93.7353 192.423 95.0674C194.461 97.3912 195.882 99.6841 196.636 101.864C197.031 103.004 197.353 104.007 197.353 104.094C197.353 104.18 196.575 104.122 195.623 103.965C194.456 103.772 193.485 103.951 192.64 104.515C190.913 105.669 191.073 106.329 193.004 106.018C194.398 105.794 195.364 105.66 197.062 107.444C198.057 108.957 198.057 108.957 198.555 109.966C199.052 109.966 199.777 109.966 200.545 109.966C202.116 109.966 201.54 109.966 202.038 109.966C202.038 107.045 205.551 102.963 208.037 103.599C209.824 104.056 209.609 102.992 207.713 101.993C206.262 101.228 206.011 101.228 204.451 101.986L202.761 102.808L204.125 100.985C204.875 99.9826 206.622 98.4999 208.008 97.6897C210.452 96.2607 210.481 96.2167 208.995 96.2121C208.153 96.2096 206.4 96.7563 205.1 97.4272L202.737 98.6469L203.048 97.3852C203.219 96.691 203.909 95.2347 204.581 94.1488C206.06 91.7611 206.11 91.1404 204.826 91.1404C204.227 91.1404 203.085 92.1721 201.881 93.8007ZM3.66471 99.487C3.50812 99.903 4.05842 101.066 4.90947 102.119C5.7486 103.156 6.35706 104.824 6.26162 104.921C6.16617 105.019 5.3012 103.976 4.33929 103.508C2.25887 102.497 0 102.869 0 104.223C0 104.79 0.632823 105.358 1.70559 105.754C2.64414 106.1 5.43094 108.992 6.26162 109.957C7.96209 109.966 6.96682 109.966 7.96209 109.957C8.45972 109.966 8.86642 109.957 9.45498 109.966C9.95261 109.461 10.6514 108.758 11.4455 107.948C12.5526 106.82 13.9634 106.352 15.0217 106.249C16.2695 106.126 16.6532 105.85 16.6532 105.075C16.6532 104.223 16.271 104.037 14.2532 103.906C12.7956 103.811 11.5459 104.01 11.0697 104.412C10.3727 105.002 10.3752 104.898 11.094 103.481C11.539 102.604 12.5024 101.441 13.2351 100.897C14.7374 99.7819 14.4784 98.7411 12.6987 98.7411C12.0018 98.7411 10.9484 99.4242 10.067 100.447L8.24188 103.508C8.24188 103.508 7.54438 101.545 6.96682 100.886C6.38927 100.227 4.13 98.2521 3.66471 99.487ZM148.48 100.453C148.19 101.221 149.012 102.288 149.892 102.288C150.2 102.288 150.951 102.83 151.561 103.493L152.275 105.103L150.625 104.14C148.969 103.69 148.322 103.729 147.24 104.348C145.22 105.504 145.58 106.445 148.315 107.156C149.642 107.501 151.67 109.387 152.275 109.966C152.773 109.966 152.773 109.966 153.768 109.966C155.261 109.966 154.763 109.966 155.758 109.966C155.76 109.757 156.618 108.466 157.254 107.656C158.337 106.276 158.515 106.22 160.079 106.776C162.184 107.523 162.963 106.897 162.161 105.103C161.461 103.536 158.744 102.399 157.109 103.687C153.768 106.435 155.145 104.131 154.568 102.712C154.238 101.899 153.501 100.901 152.931 100.494C151.618 99.5564 148.827 99.5306 148.48 100.453Z" fill="#EBB7B7"/>
</svg>
