<svg width="935" height="253" viewBox="0 0 935 253" fill="none" xmlns="http://www.w3.org/2000/svg">
<path fill-rule="evenodd" clip-rule="evenodd" d="M476 1.00002C471.589 1.49361 466.724 3.93956 463 6.50002C458.743 9.42731 456.387 14.4997 453 25C452.056 27.9253 450.151 33.6191 450 35.5C449.967 35.9101 449.632 37.18 449.5 38.0001C449.368 38.8203 449.057 41.4029 448.636 44.0001C446.917 54.5974 449.533 67.7294 454 74.5001C456.41 78.1527 458.34 79.2541 465.5 83.5001C471.095 86.8181 472.059 87.871 477.5 87.5001C483.521 87.0895 485.814 86.0347 489.245 83.5001C494.27 79.787 497.116 75.049 500 65.5001C503.647 53.4256 506.373 32.0926 505 23.5001C503.785 15.8988 497.235 6.8162 490 3.00013C485.903 0.839328 483.43 0.168403 476 1.00002ZM410.5 29.5C409.735 29.7371 407.186 30.1296 405.5 31C396.357 35.7188 393.333 38.8448 390 48C386.757 56.9052 386.594 57.3806 386.666 66.5C386.736 75.2317 386.945 75.8365 387.5 80C388.355 86.4158 388.252 88.7544 388.5 89.5C388.748 90.2456 389.18 91.2544 389.5 92C390.032 93.2427 392.59 96.8332 394.5 99C395.435 100.061 397.701 102.513 401 104.2C405.766 106.639 406.299 106.772 409.5 107C412.712 107.228 414.607 106.686 416 106C417.393 105.314 419.523 104.651 421 104C426.662 101.506 430.763 96.973 434 90.5C435.822 86.8554 437 81.5 437 81.5C437 81.5 438.049 78.5178 438.5 77C439.165 74.7632 439.258 70.4796 439 66.5C438.58 60.0241 437.521 49.9653 437 49C436.481 49.7843 436.055 46.7433 435.5 45C433.961 43.3255 432.852 40.3322 432 39C429.619 35.2759 425.672 30.8419 422.5 30.216C422.013 30.1196 420.181 29.7769 419.5 29.5C417.956 28.8722 412.368 28.9214 410.5 29.5ZM527.5 36.0001C524.355 37.5003 520.141 42.1207 516.5 48.0001C511.014 56.8591 509.989 60.7079 509.99 73.0001C509.991 79.2718 510.269 79.7765 511.5 83.5001C513.064 88.2328 514.388 91.6389 517 94.5001C517.998 95.5937 519.5 98.0001 519.5 98.0001C521.445 100.712 525.497 102.748 530 103.646C537.313 105.105 544.943 101.256 550 94.5001C552.8 90.7591 557.061 85.3709 558.635 79.4621C560.258 73.3684 560.606 59.2847 559.293 52.8122C558.597 49.3824 554.901 46.2113 550.5 42.5001C543.581 36.6664 539.375 34.846 533 35.0001C530.097 35.0707 529.411 35.0885 527.5 36.0001ZM569.5 85.0001C564.89 87.1982 560.158 92.6992 556 99.0001C552.74 103.94 551.322 109.941 552.5 119.5C553.328 126.213 554.532 127.846 560 132.926C563.441 136.123 568.922 139.581 573.5 141C578.853 142.66 584.316 140.631 588.5 134.5C591.546 130.036 592.406 126.124 593.5 118C594.575 110.014 594 106 593 102C592.634 101.419 591.917 99.0281 591.565 97.7979C589.5 92.5001 585.503 88.0506 580.5 85.5001C577.171 83.8031 572.2 83.7132 569.5 85.0001ZM361.5 85.5C359.213 86.441 358.419 86.9041 354 91C350.496 94.2479 349.125 95.9022 345.5 103C342.634 108.613 341.085 111.117 340.677 117.655C340.518 120.207 340.538 120.894 340.5 122.5C340.473 123.628 340.377 132.615 340.677 134.5C341.105 137.184 342.179 141.407 343 143C343.442 143.859 345.455 145.463 347 147C348.546 148.536 350.407 150.164 351 151C351.593 151.836 352.607 152.163 353.5 152.5C354.392 152.837 354.955 153.754 355.5 154C357.431 154.871 366.67 154.506 370 153.5C373.477 152.45 375.275 151.006 378.5 147.5C381.748 143.967 383.011 142.405 384 140.5C384.355 139.817 385.317 138.637 385.5 138.5C386.064 138.078 389.5 130.277 389.5 129.5C389.5 129.097 389.769 127.76 390 127.5C390.678 126.737 390.772 119.127 390.5 116C390.209 112.662 389.619 109.262 389.164 108C388.791 106.963 388.347 105.581 388 105C387.778 104.628 385.33 100.793 384 99C380.443 94.2032 380.079 94.0555 376.5 91C374.321 89.1389 372.166 86.592 371 86C368.168 84.562 364.18 84.397 361.5 85.5Z" fill="white"/>
<path d="M459.281 100.033C451.496 100.819 441.616 104.859 431.298 111.478C429.119 112.876 425.794 114.959 423.909 116.107C421.475 117.591 417.603 121.093 410.537 128.204C405.067 133.709 400.034 138.971 399.353 139.898C396.532 143.738 394.176 146.238 381.763 158.564C377.313 162.983 372.29 167.41 369.106 172.381C365.922 177.352 365.163 179.894 365.163 179.894C362.701 185.017 361.02 193.578 361 201.5C360.974 211.473 362.473 215.406 370.627 227.016C376.681 235.637 386.8 244.524 395.15 248.554C401.18 251.465 404.023 252 413.468 252C423.069 252.001 424.88 251.687 437.626 247.826C446.214 245.223 447.388 245.032 463.981 243.524C473.107 242.694 491.988 242.842 500.866 243.812C513.526 245.196 522.198 247.934 527.628 249.443C533.059 250.952 534.101 251.356 539.513 251.644C539.513 251.644 544.68 251.644 547.4 250.812C550.12 249.98 551.734 249.628 554.338 248.434C557.557 246.958 562.525 243.524 565.999 239.998C573.159 232.73 578.517 223.885 581.577 214.28C582.652 210.905 583.361 207.176 583.361 202.101C583.73 189.612 582.933 179.963 578.881 172.86C577.616 170.641 574.701 166.623 571.618 163.4C568.535 160.177 563.915 155.198 561.351 152.335C558.788 149.473 555.879 146.236 554.886 145.143C553.894 144.049 551.727 141.477 550.071 139.426C548.415 137.376 545.752 134.45 544.154 132.926C542.556 131.401 540.128 128.929 538.76 127.432C537.392 125.935 533.603 122.938 530.34 120.772C527.078 118.606 524.298 116.714 524.161 116.569C522.443 114.733 511.04 108.505 507.322 107.372C506.641 107.164 505.861 106.833 505.589 106.637C504.856 106.108 498.598 104.309 495.188 103.646C493.554 103.329 490.879 102.757 489.245 102.375C480.973 100.443 466.465 99.309 459.281 100.033Z" fill="white"/>
<path fill-rule="evenodd" clip-rule="evenodd" d="M75.7327 87.9057C73.1345 88.2199 71.6725 88.3705 69.0917 88.8057C48.5589 92.268 34.5105 95.4391 20.5667 110.904C18.2037 113.524 17.0676 115.161 14.9827 118.008C13.5782 119.926 12.7526 120.98 11.5 123C10.6705 124.338 9.5 126.5 9.5 126.5C9.5 126.5 -1.26527 142.241 0.133733 143.64C0.551733 144.058 2.99474 143.162 5.56274 141.648C16.3367 135.298 37.0467 125.9 48.2327 122.285C48.2327 122.285 55.4371 119.527 60.2327 118.406C66.6537 116.904 61.2887 116.288 76.9997 116.406C92.7107 116.524 93.7117 118.451 104 121.5C109.566 123.15 112.873 123.776 118 126.5C132.129 134.009 146.711 155.357 143.486 158.582C142.437 159.63 141.424 159.739 139.503 159.009C138.085 158.47 129.795 156.823 121.079 155.35C102.919 152.279 93.3447 152.43 80.7327 155.985C76.6077 157.148 70.8297 158.735 67.8927 159.513C51.1287 163.953 38.9907 177.829 29.9317 202.906C25.4917 215.198 23.8487 221.44 22.2697 232.005C20.8457 241.54 21.0687 243.85 23.0997 240.585C26.4807 235.149 45.1907 212.675 49.8297 208.477C63.4757 196.129 77.5717 190.468 95.7327 190.042C109.373 189.722 122.554 191.283 131.263 194.251C139.667 197.114 154.248 204.35 161.583 209.297C164.526 211.282 167.194 212.906 167.512 212.906C167.831 212.906 169.485 214.368 171.189 216.156C176.154 221.366 191.078 233.818 197.408 238.033C204.3 242.623 222.595 250.556 228.25 251.407C230.441 251.737 239.416 252.488 248 252C256.584 251.512 257.577 251.901 263.45 250.231C268.42 248.817 276 245 276 245C276 245 289.517 236.793 296.211 229.406C303.166 221.73 306.882 216.659 310.115 206.818C314.423 193.7 312.307 179.529 310.206 171.463C307.865 162.475 301.269 149.907 295.492 143.425C291.272 138.69 288.572 136.787 281.258 133.394C269.934 128.139 265.171 127.424 251.843 128.979C235.521 130.883 227.444 135.711 221.68 147.01C219.889 150.521 218.871 154.668 219.887 159.483C221.654 167.857 227.958 175.752 236.329 173.972C239.64 173.267 241.815 172.314 243.797 169.569C244.974 167.937 244.678 166.508 245.729 164.792C246.933 162.824 247.826 161.76 249.707 160.424C253.132 157.991 256.018 157.767 260.208 158.085C264.551 158.414 267.081 158.84 270.56 162.238C278.53 170.02 281.385 187.74 276.288 197.797C271.607 207.034 260.417 214.654 248.804 216.511C242.028 217.594 228.416 215.091 223.241 211.809C220.723 210.212 218.298 208.906 217.852 208.906C216.132 208.906 197.652 191.015 193.386 185.222C190.919 181.87 188.445 178.846 187.889 178.502C187.332 178.158 185.208 173.496 183.168 168.141C174.545 145.507 168.414 134.004 155.591 116.406C145.615 102.715 116.463 86.6544 87.5 87.0001C82.8913 87.0551 79.1843 87.4883 75.7327 87.9057ZM832.733 88.7847C813.003 92.8767 785.886 106.784 778.875 116.406C766.052 134.004 759.921 145.507 751.298 168.141C749.258 173.496 747.134 178.158 746.577 178.502C746.021 178.846 743.547 181.87 741.08 185.222C736.814 191.015 718.334 208.906 716.614 208.906C716.168 208.906 713.743 210.212 711.225 211.809C706.05 215.091 692.438 217.594 685.662 216.511C674.049 214.654 662.859 207.034 658.178 197.797C653.081 187.74 655.936 170.02 663.906 162.238C667.385 158.84 668.325 158.463 674.258 158.085C680.114 157.712 681.193 157.953 684.759 160.424C686.945 161.939 688.5 164 688.737 164.792C689.5 167 689.608 167.829 690.669 169.569C692.232 172.132 693.5 173.5 698.137 173.972C709 173.972 712.786 172 714.579 159.483C714.87 152.553 714.577 150.521 712.786 147.01C707.022 135.711 698.945 130.883 682.623 128.979C669.295 127.424 664.532 128.139 653.208 133.394C645.894 136.787 643.194 138.69 638.974 143.425C633.197 149.907 626.601 162.475 624.26 171.463C622.159 179.529 622.21 199.424 624.351 206.818C627.542 217.841 629.045 220.282 638.255 229.406C646.26 237.336 648.57 239.291 659 244.5C659 244.5 666.045 248.817 671.016 250.231C676.888 251.901 686.5 252 686.5 252C695 252 704 251.725 706.216 251.407C719.5 249.5 730.166 242.623 737.058 238.033C743.388 233.818 758.312 221.366 763.277 216.156C764.981 214.368 767 213 767 213C767 213 769.94 211.282 772.883 209.297C780.218 204.35 794.799 197.114 803.203 194.251C811.912 191.283 825.093 189.722 838.733 190.042C856.894 190.468 870.99 196.129 884.636 208.477C889.275 212.675 907.985 235.149 911.366 240.585C913.397 243.85 913.62 241.54 912.196 232.005C910.617 221.44 908.974 215.198 904.534 202.906C895.475 177.829 887.528 167.749 866.573 159.513C861.733 157.61 858.823 157.047 853.733 155.985C838.307 152.765 831.547 152.279 813.387 155.35C804.671 156.823 796.381 158.47 794.963 159.009C793.042 159.739 792.029 159.63 790.98 158.582C787.755 155.357 802.701 135.622 816 127C817.967 125.724 824.968 123.04 831 121C841.748 117.363 842.289 117.618 858 117.5C858 117.5 868.011 117.141 874.233 118.406C879.059 119.387 886.233 122.285 886.233 122.285C897.419 125.9 918.129 135.298 928.903 141.648C931.471 143.162 933.914 144.058 934.332 143.64C935.731 142.241 928.963 132.71 925 126C924.421 125.02 923.767 124 923.5 123.5C923.035 122.63 921.271 120.256 919.483 118.008C917.695 115.76 916.261 113.501 913.88 110.881C903.428 99.3826 890.617 94.0927 879.233 91.3167C862.786 87.3057 844.63 86.3167 832.733 88.7847Z" fill="#99b54c"/>
<path fill-rule="evenodd" clip-rule="evenodd" d="M477.53 0.183953C471.372 1.05424 463.211 4.6243 460.329 7.70677C454.954 13.4571 450.348 27.0419 448.024 43.998C446.978 51.6268 447.026 54.2446 448.341 61.2049C449.194 65.7202 450.652 71.0159 451.582 72.9733C455.096 80.3672 467.851 88.4595 475.975 88.4496C486.411 88.4376 492.757 84.4568 497.384 75.0206C502.441 64.709 506.746 40.372 505.791 27.5055C505.088 18.0623 504.26 15.8901 498.874 9.3794C493.353 2.70587 485.037 -0.876177 477.53 0.183953ZM489.589 5.55554C494.758 8.74492 500.788 16.8233 502.57 22.9453C503.942 27.6564 503.944 29.5449 502.586 41.0934C500.987 54.6942 498.349 65.7172 494.982 72.8713C491.446 80.3832 487.374 83.7154 479.622 85.442C475.116 86.4462 474.256 86.3143 469.194 83.8413C462.445 80.544 456.474 75.2933 454.065 70.5382C453.072 68.5778 451.681 63.7118 450.975 59.7261C449.398 50.8284 450.737 39.6726 455.041 25.8299C459.523 11.4147 462.83 7.61985 474.063 3.99882C479.709 2.17931 484.974 2.70788 489.589 5.55554ZM474.021 8.45517C463.224 11.7355 459.561 18.8087 455.005 45.184C453.756 52.4111 455.108 62.4679 458.227 69.1554C460.934 74.9606 470.841 81.4613 476.981 81.4613C486.897 81.4613 491.909 74.3671 496.395 53.9838C498.59 44.008 499.515 27.8842 498.174 22.9563C496.91 18.3141 491.175 11.1579 486.985 8.99472C483.961 7.433 478.179 7.1922 474.021 8.45517ZM402.881 31.782C399.798 33.5516 398.38 34.0807 395.722 36.2903C393.064 38.5 389.39 46.7987 387.476 53.0976C384.781 61.9673 386.036 84.208 389.755 93.5074C392.533 100.453 402.902 107.44 410.43 107.44C417.958 107.44 426.307 102.035 430.099 97.7209C435.126 92.0024 436.555 85.7578 438.576 77.4586C439.967 71.7413 440.068 69.0145 439.207 60.3236C437.881 46.9346 435.844 41.0624 430.657 35.6758C425.468 30.2873 421.319 28.4967 414.117 28.5347C409.636 28.5587 407.34 29.2231 402.881 31.782ZM423.976 34.3619C432.796 39.6686 436.208 48.2665 436.322 65.4744C436.392 75.9498 436.15 77.5385 433.59 83.4586C430.449 90.7207 427.692 95.0871 424.585 97.7209C421.708 100.159 412.365 104.442 409.923 104.442C407.914 104.442 399.885 100.613 396.874 98.2185C389.691 92.5052 386.39 66.6654 391.037 52.53C393.927 43.7402 396.999 39.3328 402.845 35.5869C411.821 29.8356 416.046 29.5908 423.976 34.3619ZM521.921 39.4437C513.028 48.6562 510.084 56.3409 509.825 71.0069C509.613 83.038 510.323 85.8657 515.453 93.4514C519.847 99.9471 522.711 102.263 528.456 103.967C533.062 105.333 534.043 105.321 538.778 103.834C546.371 101.449 551.419 96.6458 555.811 87.6282C555.811 87.6282 558.324 82.7605 559 79.5C560.374 72.8713 561.026 70.8929 561 65C560.975 59.3565 561.5 56.9634 559 51.5C558.198 49.7472 558 49 556.483 46.8347C552 41.5 543 34.5 533 34.5C526.478 34.5 526.684 34.5088 521.921 39.4437ZM408.485 36.8039C400.035 41.8188 398.593 43.7122 395.082 54.3985C392.649 61.8024 392.407 71.2077 394.367 82.1387C396.217 92.4513 398.732 95.8885 406.674 98.9489C410.784 100.534 410.981 100.511 416.527 97.7989C423.092 94.5885 426.524 90.2041 430.099 80.4621C434.423 68.6758 432.073 47.5721 425.664 40.6498C421.144 35.7668 413.222 33.9932 408.485 36.8039ZM541.958 39.182C543.821 40.0273 547.716 43.0288 550.612 45.8525C555.181 50.3078 556.039 51.7766 557.099 56.9634C558.869 65.6283 557.023 77.7373 552.495 87.1716C548.679 95.1201 545.019 98.5653 537.766 101.032C533.428 102.509 532.934 102.48 528.416 100.484C523.025 98.1026 519.273 94.2378 515.288 86.9568C512.775 82.3685 512.559 81.1056 512.642 71.4695C512.744 59.7071 513.954 55.9362 520.904 45.7176C527.111 36.5891 532.527 34.9075 541.958 39.182ZM526.385 45.241C524.489 47.3023 521.577 51.8266 519.915 55.2967C517.265 60.8262 516.881 62.7366 516.801 70.784C516.7 80.9447 517.949 84.9544 523.281 91.58C530.233 100.218 541.823 98.5503 547.306 88.1218C551.644 79.8726 552.283 77.1039 552.431 65.8901C552.608 52.518 551.912 50.8774 543.764 45.4438C535.664 40.0433 531.216 39.9913 526.385 45.241ZM567.587 85.3171C560.23 89.8504 553.851 98.6232 552.043 106.694C550.996 111.375 550.996 113.773 552.042 119.623C553.227 126.244 553.728 127.201 558.457 131.894C563.93 137.326 573.351 142.411 577.941 142.411C582.084 142.411 588.908 136.101 591.781 129.616C593.476 125.789 594.342 121.556 594.755 115.079C595.287 106.736 594.131 102.957 592.658 99.3076C591.184 95.6586 588.738 91.2862 587.222 89.5906C581.98 83.7284 573.25 81.828 567.587 85.3171ZM354.839 88.7053C348.71 93.7192 342.928 103.914 341.123 112.887C339.557 120.673 339.644 134.978 341.286 139.687C343.289 145.427 352.142 154.102 356.725 154.812C362.2 155.661 369.071 154.912 372.621 153.08C377.423 150.6 383.913 142.66 387.618 134.734C390.606 128.342 390.974 126.614 390.974 118.986C390.974 112.318 390.493 109.364 388.806 105.68C385.965 99.4765 380.877 93.2166 374.738 88.3716C370.509 85.0334 369.065 84.4588 364.906 84.4588C360.65 84.4588 359.368 84.9994 354.839 88.7053ZM372.611 90.5698C377.639 94.007 381.976 99.3246 385.642 106.543C387.882 110.954 388.374 113.227 388.34 119.026C388.304 125.153 387.795 127.123 384.602 133.515C380.562 141.601 376.843 146.194 371.29 149.957C368.472 151.867 366.39 152.403 361.794 152.403C356.297 152.403 355.614 152.133 351.476 148.325C344.721 142.107 342.943 137.572 342.943 126.551C342.943 121.472 343.474 115.208 344.121 112.629C347.459 99.3356 359.896 85.1363 366.459 87.1236C367.559 87.4574 370.328 89.0081 372.611 90.5698ZM579.75 88.0968C584.322 90.2621 587.482 94.5715 590.635 102.934C593.08 109.421 592.05 110 592.05 116.864C590.467 126.396 586.845 133.84 582.283 136.936C580.274 138.299 578.012 139.414 577.258 139.414C574.401 139.414 561.862 131.974 559.119 128.651C553.619 121.989 552.531 110.872 556.596 102.89C559.346 97.4911 561.669 94.6565 567.4 89.7045C571.62 86.0595 574.626 85.6678 579.75 88.0968ZM570 91.5C565.366 94.5035 560.057 100.55 558.457 106C557.307 109.915 557.077 114.064 558 118.5C559.438 125.413 561 125.5 565 129.5C567 131 572.5 135.5 577.258 135.5C580 135.5 582.283 132.5 582.283 132.5C586.686 127.606 588.861 123.482 589 114.286C589.143 104.929 586.955 99.4949 582.5 94.5C578.663 90.1975 573.978 88.9221 570 91.5ZM358.245 95.6996C350.685 103.479 346.978 113.611 346.958 126.552C346.943 135.8 348.496 139.87 353.896 144.742C362.83 152.801 373.217 147.815 380.981 131.739C386.955 119.37 383.881 105.941 372.797 95.9904C366.248 90.1112 363.726 90.0602 358.245 95.6996ZM458 99.9941C450.417 101.248 443.247 104.031 431.5 111C421.024 117.216 417.387 121.426 385.942 153.907C369.673 170.711 367.59 173.429 364.307 182.135C362.178 187.779 361.13 190.875 361 200.5C360.86 210.859 361.69 212.297 363.844 216.351C369.714 227.402 379.673 238.771 388.973 245.041C400.842 253.041 415.095 254.097 435.002 248.45C450.789 243.973 450.854 243.966 478.53 243.896C505.829 243.827 507.526 243.987 523.059 248.072C539 253 544.004 253.473 555.124 247.896C563.359 243.766 567.633 239.829 573.45 231.018C581.912 218.199 584.5 213.643 584.5 196.867C584.5 177.402 581.423 173.056 567.21 158.414C564.801 155.932 559.893 150.53 556.303 146.408C545.198 133.658 534.847 123.659 526.5 118C518.001 112.237 521.5 113.5 502.5 105.5C501 105 500.377 104.854 499 104.5C497.257 104.051 496.582 103.831 494.5 103.5C492.418 103.169 492 103 490 102.5C488.5 102.125 487.418 102.026 485.25 101.633C479 100.5 470.978 99.5 466 99.5C464.624 99.3171 461.027 99.4935 458 99.9941ZM475.5 104.5C491.202 106.548 505.119 109.383 514.053 114.286C528.324 122.119 537.111 130.052 561.833 157.425C574.122 171.032 577.144 175.076 578.979 180.38C580.871 185.848 581.53 202.024 580.132 208.709C577.27 222.408 564.413 240.308 554.079 244.988C544.691 249.239 541.383 249.497 531.006 246.793C509.228 241.114 507.175 240.882 479.531 240.948C452.011 241.015 450.685 241.169 429.022 246.793C408.182 252.202 396.827 249.134 381.557 233.964C372.841 225.304 370.557 222.393 366.941 215.32C362.431 206.501 363.283 191.683 369 179.481C371.46 174.234 374.987 169.983 387.687 156.962C396.298 148.136 407.427 136.692 412.418 131.534C427.978 115.455 450.755 103.799 464.5 103.465C466.523 103.416 471.194 103.938 475.5 104.5ZM452.867 109.375C438.67 114.44 425.915 123.144 413.489 136.244C407.985 142.048 397.361 153.115 389.881 160.84C375.248 175.948 372.79 179.298 370.285 187.538C368.167 194.508 367.971 208.08 369.934 211.947C378.399 228.629 393.232 241.736 406.727 244.462C413.695 245.869 420.485 244.872 439.005 239.723C448.271 237.148 449.284 237.078 479.031 236.958L509.55 236.834L524.515 240.664C536.248 243.666 540.457 244.347 544.004 243.815C553.337 242.418 560.877 236.751 568.118 225.689C574.948 215.257 576.448 210.025 576.381 196.867C576.304 181.391 574.609 177.339 562.986 164.842C558.027 159.509 550.219 150.819 545.636 145.532C535.424 133.748 533.721 132.187 523.202 124.957C507.124 113.904 491.268 108.762 470.525 107.874C460.169 107.43 457.74 107.637 452.867 109.375ZM487.418 135.376C499.906 139.667 504.131 144.972 508 150.5C515 160.5 516.792 170.074 516.5 179.381C516.208 188.688 514.285 192.5 512.284 196.554C503.921 213.5 484.547 223.45 465.639 220.51C455.801 218.98 448.852 215.378 441.414 207.951C432.197 198.746 429.672 192.849 429.182 179.381C428.746 167.424 430.38 161.063 435.975 152.944C440.497 146.381 451.239 137.857 457.924 135.527C465.74 132.803 479.72 132.731 487.418 135.376Z" fill="#9E7664"/>
<path d="M472.37 137.216C451.283 137.216 432.748 156.413 432.748 177.44C432.748 198.467 450.358 216.749 472.37 216.749C494.382 216.749 511.992 198.465 511.992 177.44C511.992 156.416 496.699 137.216 472.37 137.216Z" fill="#00A968"/>
<path d="M495.4 149.644C492.581 147.443 489.73 144.673 485.742 144.673C483.018 144.673 478.809 145.17 478.809 148.898C478.809 151.396 480.294 152.792 483.514 153.869C484.999 154.366 488.146 156.409 489.705 157.597C491.19 158.729 492.264 160.579 492.924 162.071C493.914 164.307 494.377 165.842 495.153 167.787C496.539 171.267 498.397 172.183 501.344 171.764C504.29 171.345 505.058 169.278 504.81 165.799C504.563 162.319 503.107 159.585 501.864 157.1C500.745 154.863 497.629 151.383 495.4 149.644Z" fill="white"/>
</svg>
